<svg width="182" height="180" viewBox="0 0 182 180" fill="none" xmlns="http://www.w3.org/2000/svg">
<rect y="0.694336" width="182" height="179" rx="16" fill="#DADADA"/>
<g clip-path="url(#clip0_3_2639)">
<path d="M59.81 52.5347C61.74 52.5347 63.4 52.7647 64.81 53.2147C66.21 53.6647 67.37 54.2947 68.27 55.1047C69.18 55.9147 69.85 56.8747 70.28 57.9847C70.71 59.0947 70.93 60.3047 70.93 61.6147C70.93 62.9947 70.7 64.2647 70.25 65.4147C69.8 66.5647 69.11 67.5547 68.19 68.3847C67.27 69.2147 66.11 69.8547 64.72 70.3147C63.33 70.7747 61.68 71.0047 59.81 71.0047H56.12V80.6947H50.3V52.5347H59.81ZM59.81 66.5447C61.64 66.5447 62.97 66.1047 63.82 65.2247C64.67 64.3447 65.09 63.1447 65.09 61.6147C65.09 60.9147 64.98 60.2747 64.77 59.7047C64.56 59.1247 64.23 58.6347 63.8 58.2247C63.37 57.8147 62.82 57.5047 62.16 57.2847C61.5 57.0647 60.72 56.9547 59.81 56.9547H56.12V66.5447H59.81Z" fill="#7B787A" fill-opacity="0.4"/>
<path d="M101.85 66.6048C101.85 68.6648 101.5 70.5748 100.81 72.3348C100.12 74.0948 99.14 75.6148 97.88 76.8948C96.62 78.1748 95.1 79.1848 93.33 79.9148C91.56 80.6448 89.59 81.0148 87.43 81.0148C85.27 81.0148 83.3 80.6448 81.53 79.9148C79.76 79.1848 78.24 78.1748 76.97 76.8948C75.7 75.6148 74.72 74.0948 74.03 72.3348C73.34 70.5748 72.99 68.6648 72.99 66.6048C72.99 64.5448 73.34 62.6448 74.03 60.8848C74.72 59.1348 75.7 57.6148 76.97 56.3348C78.24 55.0548 79.76 54.0448 81.53 53.3148C83.3 52.5848 85.27 52.2148 87.43 52.2148C89.59 52.2148 91.56 52.5848 93.33 53.3148C95.1 54.0448 96.62 55.0548 97.88 56.3448C99.14 57.6348 100.12 59.1548 100.81 60.9048C101.5 62.6548 101.85 64.5548 101.85 66.6048ZM95.89 66.6048C95.89 65.1248 95.7 63.8048 95.31 62.6348C94.92 61.4648 94.36 60.4648 93.63 59.6448C92.9 58.8248 92.01 58.1948 90.97 57.7648C89.93 57.3348 88.75 57.1148 87.43 57.1148C86.11 57.1148 84.93 57.3348 83.88 57.7648C82.83 58.1948 81.94 58.8248 81.21 59.6448C80.48 60.4648 79.92 61.4648 79.53 62.6348C79.14 63.8048 78.95 65.1248 78.95 66.6048C78.95 68.0848 79.14 69.4248 79.53 70.5948C79.92 71.7648 80.48 72.7548 81.21 73.5748C81.94 74.3948 82.83 75.0148 83.88 75.4448C84.93 75.8748 86.11 76.0948 87.43 76.0948C88.75 76.0948 89.93 75.8748 90.97 75.4448C92.01 75.0148 92.9 74.3848 93.63 73.5748C94.36 72.7648 94.92 71.7648 95.31 70.5948C95.7 69.4248 95.89 68.0948 95.89 66.6048Z" fill="#7B787A" fill-opacity="0.4"/>
<path d="M131.37 66.6047C131.37 68.6647 131.02 70.5547 130.33 72.2847C129.64 74.0147 128.66 75.4947 127.4 76.7347C126.14 77.9747 124.62 78.9447 122.85 79.6447C121.08 80.3447 119.11 80.6947 116.95 80.6947H106.12V52.5347H116.95C119.11 52.5347 121.08 52.8847 122.85 53.5847C124.62 54.2847 126.14 55.2547 127.4 56.5047C128.66 57.7547 129.64 59.2347 130.33 60.9547C131.02 62.6747 131.37 64.5547 131.37 66.6047ZM125.39 66.6047C125.39 65.1247 125.2 63.8047 124.81 62.6247C124.42 61.4447 123.86 60.4547 123.14 59.6347C122.42 58.8247 121.53 58.1947 120.49 57.7547C119.45 57.3147 118.27 57.0947 116.95 57.0947H111.98V76.1347H116.95C118.27 76.1347 119.45 75.9147 120.49 75.4847C121.53 75.0547 122.41 74.4247 123.14 73.6047C123.87 72.7847 124.42 71.7847 124.81 70.6047C125.2 69.4247 125.39 68.0947 125.39 66.6047Z" fill="#7B787A" fill-opacity="0.4"/>
<path d="M60.79 120.355C61.11 120.355 61.38 120.475 61.6 120.705L63.91 123.175C62.77 124.625 61.36 125.725 59.67 126.475C57.98 127.225 55.97 127.605 53.64 127.605C51.53 127.605 49.64 127.245 47.95 126.525C46.27 125.805 44.84 124.805 43.66 123.525C42.48 122.245 41.58 120.725 40.94 118.965C40.31 117.205 39.99 115.285 39.99 113.205C39.99 111.805 40.14 110.475 40.45 109.215C40.75 107.955 41.2 106.795 41.78 105.735C42.36 104.675 43.06 103.715 43.89 102.865C44.71 102.015 45.64 101.285 46.68 100.685C47.72 100.085 48.84 99.6247 50.07 99.3047C51.29 98.9847 52.6 98.8247 53.98 98.8247C55.02 98.8247 56 98.9147 56.92 99.0947C57.85 99.2747 58.71 99.5247 59.51 99.8547C60.31 100.175 61.05 100.575 61.73 101.025C62.41 101.485 63.02 101.985 63.56 102.525L61.6 105.205C61.48 105.375 61.34 105.525 61.15 105.655C60.96 105.785 60.72 105.845 60.41 105.845C60.1 105.845 59.79 105.735 59.47 105.515C59.15 105.295 58.76 105.045 58.3 104.775C57.84 104.505 57.26 104.255 56.57 104.035C55.88 103.815 55 103.705 53.94 103.705C52.76 103.705 51.68 103.915 50.7 104.345C49.72 104.775 48.87 105.395 48.17 106.195C47.47 106.995 46.92 107.995 46.53 109.175C46.14 110.355 45.95 111.695 45.95 113.195C45.95 114.695 46.16 116.055 46.58 117.245C47 118.425 47.58 119.425 48.31 120.245C49.04 121.065 49.89 121.675 50.87 122.095C51.85 122.515 52.89 122.725 54 122.725C54.66 122.725 55.26 122.695 55.79 122.625C56.33 122.565 56.83 122.455 57.29 122.295C57.75 122.135 58.18 121.935 58.59 121.695C59 121.445 59.41 121.135 59.82 120.765C59.96 120.645 60.11 120.555 60.27 120.475C60.43 120.395 60.59 120.355 60.77 120.355H60.79Z" fill="#7B787A" fill-opacity="0.4"/>
<path d="M71.85 98.3447V127.285H66.49V98.3447H71.85Z" fill="#7B787A" fill-opacity="0.4"/>
<path d="M82.47 101.585C82.47 102.035 82.38 102.455 82.2 102.845C82.02 103.235 81.78 103.575 81.47 103.875C81.17 104.175 80.81 104.405 80.4 104.575C79.99 104.745 79.56 104.825 79.09 104.825C78.65 104.825 78.23 104.745 77.84 104.575C77.45 104.405 77.1 104.175 76.8 103.875C76.5 103.575 76.27 103.235 76.09 102.845C75.91 102.455 75.83 102.035 75.83 101.585C75.83 101.135 75.92 100.705 76.09 100.315C76.26 99.9247 76.5 99.5747 76.8 99.2747C77.1 98.9747 77.44 98.7447 77.84 98.5747C78.23 98.4047 78.65 98.3247 79.09 98.3247C79.56 98.3247 79.99 98.4047 80.4 98.5747C80.81 98.7447 81.16 98.9747 81.47 99.2747C81.77 99.5747 82.02 99.9147 82.2 100.315C82.38 100.715 82.47 101.135 82.47 101.585ZM81.83 107.275V127.285H76.47V107.275H81.83Z" fill="#7B787A" fill-opacity="0.4"/>
<path d="M90.68 118.105C90.85 119.985 91.38 121.355 92.28 122.225C93.18 123.095 94.35 123.525 95.8 123.525C96.54 123.525 97.18 123.435 97.71 123.265C98.25 123.095 98.72 122.895 99.13 122.685C99.54 122.475 99.91 122.275 100.24 122.105C100.57 121.935 100.9 121.845 101.22 121.845C101.63 121.845 101.96 122.005 102.19 122.315L103.74 124.255C103.17 124.915 102.54 125.465 101.86 125.895C101.18 126.325 100.46 126.675 99.73 126.925C98.99 127.175 98.25 127.355 97.5 127.445C96.75 127.545 96.02 127.595 95.33 127.595C93.93 127.595 92.63 127.365 91.42 126.905C90.21 126.445 89.16 125.765 88.26 124.865C87.36 123.965 86.65 122.845 86.14 121.515C85.62 120.185 85.36 118.635 85.36 116.875C85.36 115.515 85.58 114.235 86.03 113.035C86.48 111.835 87.12 110.785 87.96 109.895C88.8 109.005 89.82 108.295 91.03 107.765C92.23 107.245 93.59 106.975 95.11 106.975C96.39 106.975 97.57 107.175 98.65 107.585C99.73 107.995 100.66 108.585 101.44 109.365C102.22 110.145 102.83 111.095 103.26 112.225C103.69 113.355 103.91 114.645 103.91 116.095C103.91 116.495 103.89 116.825 103.85 117.085C103.81 117.345 103.75 117.555 103.66 117.705C103.57 117.865 103.45 117.965 103.29 118.025C103.13 118.085 102.93 118.115 102.69 118.115H90.69L90.68 118.105ZM99.1 114.915C99.1 114.355 99.02 113.825 98.88 113.325C98.73 112.825 98.5 112.375 98.17 111.985C97.85 111.595 97.44 111.285 96.95 111.065C96.46 110.835 95.87 110.725 95.18 110.725C93.9 110.725 92.9 111.085 92.17 111.815C91.44 112.545 90.97 113.575 90.75 114.925H99.1V114.915Z" fill="#7B787A" fill-opacity="0.4"/>
<path d="M112.19 109.605C112.59 109.215 113.01 108.865 113.44 108.535C113.87 108.205 114.33 107.935 114.82 107.705C115.31 107.475 115.83 107.295 116.39 107.165C116.95 107.035 117.56 106.975 118.22 106.975C119.31 106.975 120.27 107.165 121.11 107.535C121.95 107.905 122.66 108.435 123.23 109.105C123.81 109.775 124.24 110.585 124.53 111.515C124.82 112.445 124.97 113.465 124.97 114.585V127.295H119.63V114.585C119.63 113.475 119.37 112.605 118.85 111.995C118.33 111.385 117.57 111.075 116.56 111.075C115.81 111.075 115.1 111.235 114.44 111.565C113.78 111.885 113.15 112.345 112.56 112.925V127.305H107.2V107.295H110.5C111.17 107.295 111.62 107.605 111.84 108.225L112.17 109.625L112.19 109.605Z" fill="#7B787A" fill-opacity="0.4"/>
<path d="M135.87 127.594C134.96 127.594 134.16 127.464 133.46 127.194C132.76 126.924 132.17 126.554 131.69 126.054C131.21 125.554 130.85 124.964 130.6 124.264C130.35 123.564 130.23 122.774 130.23 121.894V111.104H128.35C128.06 111.104 127.82 111.014 127.62 110.834C127.42 110.654 127.32 110.384 127.32 110.024V107.924L130.52 107.344L131.61 102.164C131.75 101.584 132.15 101.294 132.79 101.294H135.58V107.384H140.74V111.114H135.58V121.554C135.58 122.114 135.71 122.554 135.98 122.874C136.24 123.194 136.62 123.364 137.12 123.364C137.38 123.364 137.6 123.334 137.78 123.274C137.96 123.214 138.12 123.154 138.25 123.084C138.38 123.014 138.5 122.944 138.61 122.894C138.72 122.844 138.83 122.804 138.95 122.804C139.11 122.804 139.23 122.844 139.34 122.914C139.44 122.984 139.55 123.104 139.65 123.274L141.26 125.834C140.52 126.414 139.69 126.854 138.76 127.154C137.83 127.454 136.86 127.604 135.87 127.604V127.594Z" fill="#7B787A" fill-opacity="0.4"/>
</g>
<defs>
<clipPath id="clip0_3_2639">
<rect width="101.26" height="75.37" fill="white" transform="translate(40 52.2246)"/>
</clipPath>
</defs>
</svg>
